<svg width="96" height="96" viewBox="0 0 96 96" fill="none" xmlns="http://www.w3.org/2000/svg">
<rect x="0.117188" y="0.219727" width="95.1205" height="95.1205" rx="46.5137" fill="#1E4844"/>
<path d="M47.6816 47.7803H52.7109C55.3786 47.7803 57.9371 46.7205 59.8234 44.8342C61.7098 42.9478 62.7695 40.3894 62.7695 37.7217V36.0452H57.7402C55.0725 36.0452 52.5141 37.105 50.6277 38.9913C48.7414 40.8777 47.6816 43.4361 47.6816 46.1038H42.6523C39.9846 46.1038 37.4262 45.0441 35.5398 43.1577C33.6535 41.2714 32.5938 38.7129 32.5938 36.0452V32.6924H37.623C40.2907 32.6924 42.8492 33.7521 44.7355 35.6385C46.6219 37.5248 47.6816 40.0833 47.6816 42.751V52.8096M39.2995 52.8096H56.0638V59.5153C56.0638 60.4045 55.7105 61.2573 55.0818 61.8861C54.453 62.5149 53.6002 62.8681 52.7109 62.8681H42.6523C41.7631 62.8681 40.9103 62.5149 40.2815 61.8861C39.6527 61.2573 39.2995 60.4045 39.2995 59.5153V52.8096Z" stroke="white" stroke-width="3.35286" stroke-linecap="round" stroke-linejoin="round"/>
</svg>
