<svg width="95" height="94" viewBox="0 0 95 94" fill="none" xmlns="http://www.w3.org/2000/svg">
<rect x="0.773438" y="0.301758" width="93.4925" height="93.4925" rx="46.5137" fill="#1E4844"/>
<path d="M31.4289 32.5695V30.9609C31.0023 30.9609 30.5931 31.1304 30.2915 31.4321C29.9898 31.7338 29.8203 32.1429 29.8203 32.5695H31.4289ZM49.1235 32.5695H50.7321C50.7321 32.1429 50.5626 31.7338 50.2609 31.4321C49.9593 31.1304 49.5501 30.9609 49.1235 30.9609V32.5695ZM49.1235 42.2211V40.6125C48.6969 40.6125 48.2877 40.782 47.986 41.0837C47.6844 41.3853 47.5149 41.7945 47.5149 42.2211H49.1235ZM31.4289 34.1781H49.1235V30.9609H31.4289V34.1781ZM47.5149 32.5695V58.3071H50.7321V32.5695H47.5149ZM33.0375 55.0899V32.5695H29.8203V55.0899H33.0375ZM49.1235 43.8297H57.1665V40.6125H49.1235V43.8297ZM61.9923 48.6555V55.0899H65.2095V48.6555H61.9923ZM50.7321 58.3071V42.2211H47.5149V58.3071H50.7321ZM58.3038 59.4444C58.0021 59.746 57.593 59.9154 57.1665 59.9154C56.7399 59.9154 56.3309 59.746 56.0292 59.4444L53.7547 61.719C54.6596 62.6237 55.8869 63.1319 57.1665 63.1319C58.4461 63.1319 59.6734 62.6237 60.5783 61.719L58.3038 59.4444ZM56.0292 57.1698C56.3309 56.8683 56.7399 56.6989 57.1665 56.6989C57.593 56.6989 58.0021 56.8683 58.3038 57.1698L60.5783 54.8953C59.6734 53.9906 58.4461 53.4824 57.1665 53.4824C55.8869 53.4824 54.6596 53.9906 53.7547 54.8953L56.0292 57.1698ZM39.0006 59.4444C38.6989 59.746 38.2898 59.9154 37.8633 59.9154C37.4368 59.9154 37.0277 59.746 36.726 59.4444L34.4515 61.719C35.3564 62.6237 36.5837 63.1319 37.8633 63.1319C39.1429 63.1319 40.3702 62.6237 41.2751 61.719L39.0006 59.4444ZM36.726 57.1698C37.0277 56.8683 37.4368 56.6989 37.8633 56.6989C38.2898 56.6989 38.6989 56.8683 39.0006 57.1698L41.2751 54.8953C40.3702 53.9906 39.1429 53.4824 37.8633 53.4824C36.5837 53.4824 35.3564 53.9906 34.4515 54.8953L36.726 57.1698ZM58.3038 57.1698C58.6191 57.4835 58.7751 57.8937 58.7751 58.3071H61.9923C61.9923 57.0749 61.521 55.8363 60.5783 54.8953L58.3038 57.1698ZM58.7751 58.3071C58.7756 58.5184 58.7342 58.7277 58.6533 58.9229C58.5724 59.1181 58.4536 59.2954 58.3038 59.4444L60.5783 61.719C61.0269 61.2713 61.3827 60.7394 61.6253 60.154C61.868 59.5685 61.9927 58.9409 61.9923 58.3071H58.7751ZM53.9493 56.6985H49.1235V59.9157H53.9493V56.6985ZM56.0292 59.4444C55.8794 59.2954 55.7606 59.1181 55.6797 58.9229C55.5988 58.7277 55.5574 58.5184 55.5579 58.3071H52.3407C52.3407 59.5393 52.812 60.7779 53.7547 61.719L56.0292 59.4444ZM55.5579 58.3071C55.5571 58.0958 55.5983 57.8863 55.6792 57.6911C55.7601 57.4958 55.8791 57.3186 56.0292 57.1698L53.7547 54.8953C53.3061 55.343 52.9503 55.8748 52.7076 56.4603C52.465 57.0458 52.3403 57.6734 52.3407 58.3071H55.5579ZM36.726 59.4444C36.5762 59.2954 36.4574 59.1181 36.3765 58.9229C36.2956 58.7277 36.2542 58.5184 36.2547 58.3071H33.0375C33.0375 59.5393 33.5088 60.7779 34.4515 61.719L36.726 59.4444ZM36.2547 58.3071C36.2539 58.0958 36.2951 57.8863 36.376 57.6911C36.4569 57.4958 36.5759 57.3186 36.726 57.1698L34.4515 54.8953C34.0029 55.343 33.6471 55.8748 33.4045 56.4603C33.1618 57.0458 33.0371 57.6734 33.0375 58.3071H36.2547ZM49.1235 56.6985H41.0805V59.9157H49.1235V56.6985ZM39.0006 57.1698C39.3159 57.4835 39.4719 57.8937 39.4719 58.3071H42.6891C42.6891 57.0749 42.2178 55.8363 41.2751 54.8953L39.0006 57.1698ZM39.4719 58.3071C39.4724 58.5184 39.431 58.7277 39.3501 58.9229C39.2692 59.1181 39.1504 59.2954 39.0006 59.4444L41.2751 61.719C41.7237 61.2713 42.0795 60.7394 42.3222 60.154C42.5648 59.5685 42.6895 58.9409 42.6891 58.3071H39.4719ZM61.9923 55.0899C61.9923 55.5165 61.8228 55.9257 61.5211 56.2274C61.2195 56.529 60.8103 56.6985 60.3837 56.6985V59.9157C61.6636 59.9157 62.891 59.4073 63.796 58.5023C64.7011 57.5973 65.2095 56.3698 65.2095 55.0899H61.9923ZM57.1665 43.8297C58.4464 43.8297 59.6738 44.3382 60.5788 45.2432C61.4839 46.1482 61.9923 47.3756 61.9923 48.6555H65.2095C65.2095 47.5993 65.0014 46.5534 64.5973 45.5776C64.1931 44.6018 63.6006 43.7151 62.8537 42.9683C62.1069 42.2214 61.2202 41.629 60.2444 41.2248C59.2686 40.8206 58.2227 40.6125 57.1665 40.6125V43.8297ZM29.8203 55.0899C29.8203 56.3698 30.3287 57.5973 31.2338 58.5023C32.1388 59.4073 33.3662 59.9157 34.6461 59.9157V56.6985C34.2195 56.6985 33.8103 56.529 33.5087 56.2274C33.207 55.9257 33.0375 55.5165 33.0375 55.0899H29.8203Z" fill="white"/>
<path d="M31.4297 40.6113H36.2555M31.4297 47.0457H39.4727" stroke="white" stroke-width="2.32568" stroke-linecap="round" stroke-linejoin="round"/>
</svg>
