<svg width="98" height="98" viewBox="0 0 98 98" fill="none" xmlns="http://www.w3.org/2000/svg">
<rect x="0.570312" y="0.219727" width="97.2136" height="97.2136" rx="46.5137" fill="#1E4844"/>
<path d="M56.5524 64.37C54.2508 65.4644 51.7333 66.0294 49.1848 66.0234C39.7034 66.0234 31.9893 58.3092 31.9893 48.8279C31.9893 44.7605 33.3874 40.9193 35.9575 37.8386V40.8915H38.6029V32.9551H30.6665V35.6005H34.4257C31.1461 39.2245 29.3343 43.9403 29.3438 48.8279C29.3438 59.7682 38.2445 68.6689 49.1848 68.6689C52.1269 68.675 55.033 68.0224 57.69 66.7589L56.5524 64.37Z" fill="white"/>
<path d="M55.7917 39.5684C51.6119 39.5684 48.1847 42.8183 47.8844 46.9228C46.4302 45.5959 44.5329 44.86 42.5644 44.8593H37.2734V50.1502C37.2734 54.5272 40.8342 58.0866 45.2098 58.0866H47.8553V63.3776H50.5008V52.7957H53.1462C57.5218 52.7957 61.0826 49.2362 61.0826 44.8593V39.5684H55.7917ZM45.2098 55.4412C42.2919 55.4412 39.9189 53.0682 39.9189 50.1502V47.5048H42.5644C45.4823 47.5048 47.8553 49.8777 47.8553 52.7957V53.5708L44.8223 50.5378L42.9519 52.4081L45.985 55.4412H45.2098ZM58.4372 44.8593C58.4372 47.7772 56.0642 50.1502 53.1462 50.1502H52.3711L55.4041 47.1172L53.5338 45.2469L50.5008 48.2799V47.5048C50.5008 44.5868 52.8738 42.2138 55.7917 42.2138H58.4372V44.8593Z" fill="white"/>
<path d="M69.0181 48.8274C69.0181 37.887 60.1174 28.9864 49.1771 28.9864C46.235 28.9802 43.3288 29.6329 40.6719 30.8964L41.8094 33.2853C44.111 32.1908 46.6285 31.6259 49.1771 31.6318C58.6584 31.6318 66.3726 39.346 66.3726 48.8274C66.3726 52.8948 64.9745 56.736 62.4044 59.8166V56.7638H59.7589V64.7002H67.6953V62.0547H63.9361C67.2157 58.4308 69.0275 53.715 69.0181 48.8274Z" fill="white"/>
</svg>
