<svg width="100" height="95" viewBox="0 0 100 95" fill="none" xmlns="http://www.w3.org/2000/svg">
<rect x="0.742188" y="0.431641" width="98.5924" height="94.1966" rx="46.5137" fill="#1E4844"/>
<mask id="path-2-outside-1_7191_10505" maskUnits="userSpaceOnUse" x="28.5703" y="27.0957" width="43" height="41" fill="black">
<rect fill="white" x="28.5703" y="27.0957" width="43" height="41"/>
<path d="M45.5877 28.0957C41.6702 28.0957 38.4686 31.1359 38.4686 34.8537C38.4686 37.9831 41.0963 41.075 43.6386 43.5613C46.1808 46.0466 48.7401 47.8695 48.9731 48.0339C49.2862 48.256 49.6634 48.3686 50.0363 48.3686C50.4093 48.3686 50.7833 48.257 51.0964 48.0369C51.0975 48.0359 51.0985 48.0349 51.0996 48.0339C51.324 47.8756 53.8919 46.0477 56.4341 43.5613C58.9763 41.075 61.6041 37.9831 61.6041 34.8537C61.6041 31.1349 58.4025 28.0957 54.485 28.0957C52.4514 28.0957 51.0312 28.9661 50.0363 29.7705C49.0415 28.9661 47.6213 28.0957 45.5877 28.0957ZM45.5877 29.7857C47.3659 29.7857 48.6696 30.7037 49.4069 31.4057C49.4903 31.4848 49.5865 31.5457 49.6955 31.5883C49.8045 31.6319 49.9188 31.6532 50.0363 31.6532C50.1539 31.6532 50.2682 31.6319 50.3772 31.5883C50.4862 31.5457 50.5824 31.4848 50.6658 31.4057C51.4031 30.7037 52.7068 29.7857 54.485 29.7857C57.4365 29.7857 59.8248 32.0509 59.8248 34.8537C59.8248 36.9971 57.5861 40.0109 55.1582 42.3846C52.7314 44.7583 50.2287 46.5437 50.0363 46.6796C49.8536 46.5508 47.3424 44.7594 44.9145 42.3846C42.4866 40.0109 40.2479 36.9971 40.2479 34.8537C40.2479 32.0519 42.6362 29.7857 45.5877 29.7857ZM32.6308 32.415C30.9007 32.5632 29.5703 33.9509 29.5703 35.5881V52.8087C29.5703 54.2481 30.2158 55.6206 31.3453 56.5813L37.8798 62.1412C38.8223 62.9436 39.3588 64.0869 39.3588 65.2869V66.1076C39.3566 66.2201 39.378 66.3297 39.4229 66.4342C39.4667 66.5387 39.5308 66.632 39.6142 66.7121C39.6986 66.7923 39.7948 66.8552 39.9048 66.8988C40.0149 66.9424 40.1293 66.9637 40.2479 66.9637C40.3676 66.9637 40.4819 66.9424 40.592 66.8988C40.702 66.8552 40.7982 66.7923 40.8816 66.7121C40.966 66.632 41.0301 66.5387 41.0739 66.4342C41.1188 66.3297 41.1402 66.2201 41.138 66.1076V65.2869C41.138 63.6081 40.3847 62.0063 39.066 60.8844L32.5336 55.3244C32.5336 55.3234 32.5336 55.3234 32.5336 55.3224C31.7802 54.6813 31.3495 53.7693 31.3495 52.8087V35.5881C31.3495 34.8101 31.9565 34.17 32.789 34.0979C33.661 34.028 34.41 34.6315 34.4955 35.4674L35.4007 44.3495C35.4028 44.3698 35.4049 44.3891 35.4081 44.4094C35.375 44.4368 35.3376 44.4561 35.3055 44.4855C33.8747 45.7565 33.7603 47.8979 35.0501 49.2988L40.9019 55.6561C40.9788 55.7413 41.0707 55.8093 41.1765 55.86C41.2823 55.9107 41.3945 55.9402 41.5131 55.9473C41.6317 55.9554 41.7471 55.9422 41.8593 55.9057C41.9715 55.8702 42.0731 55.8154 42.1618 55.7413C42.2515 55.6673 42.322 55.579 42.3744 55.4786C42.4268 55.3772 42.4567 55.2706 42.4642 55.158C42.4716 55.0454 42.4567 54.9359 42.4182 54.8294C42.3797 54.7229 42.321 54.6285 42.2419 54.5443L36.3902 48.187C35.7191 47.4577 35.7757 46.3804 36.5206 45.719C37.2472 45.0738 38.3543 45.0728 39.082 45.717L47.1703 52.8959C48.4302 54.0138 49.1462 55.577 49.1462 57.2153V66.1076C49.1451 66.2141 49.1644 66.3175 49.2039 66.4169C49.2434 66.5174 49.3011 66.6066 49.377 66.6858C49.4529 66.7649 49.5416 66.8288 49.642 66.8755C49.7425 66.9231 49.8493 66.9515 49.9615 66.9597C49.9915 66.9627 50.0203 66.9637 50.0502 66.9637C50.1678 66.9617 50.2811 66.9383 50.389 66.8947C50.498 66.8501 50.5931 66.7872 50.6743 66.7071C50.7566 66.6269 50.8196 66.5346 50.8634 66.4311C50.9073 66.3267 50.9276 66.2191 50.9265 66.1076V57.2153C50.9265 55.577 51.6425 54.0128 52.9024 52.8959L60.9907 45.717C61.7184 45.0718 62.8255 45.0728 63.5521 45.719C64.297 46.3804 64.3536 47.4587 63.6825 48.187L57.8308 54.5443C57.7517 54.6285 57.6929 54.7229 57.6545 54.8294C57.616 54.9359 57.601 55.0454 57.6085 55.158C57.6149 55.2706 57.6459 55.3772 57.6983 55.4786C57.7506 55.579 57.8212 55.6673 57.9109 55.7413C57.9996 55.8154 58.1011 55.8702 58.2134 55.9057C58.3256 55.9422 58.441 55.9554 58.5596 55.9473C58.6782 55.9402 58.7904 55.9107 58.8962 55.86C59.002 55.8093 59.0939 55.7413 59.1708 55.6561L65.0225 49.2988H65.0204C66.3113 47.899 66.198 45.7565 64.7671 44.4855C64.7351 44.4571 64.6977 44.4378 64.6646 44.4104C64.6678 44.3901 64.6699 44.3698 64.672 44.3495L65.5771 35.4674C65.6626 34.6315 66.4107 34.029 67.2816 34.0979H67.2837C68.1162 34.17 68.7231 34.8101 68.7231 35.5881V52.8087C68.7231 53.7693 68.2925 54.6833 67.5391 55.3244L61.0067 60.8854C59.6891 62.0063 58.9347 63.6081 58.9347 65.2869V66.1076C58.9325 66.2201 58.9539 66.3297 58.9988 66.4342C59.0426 66.5387 59.1067 66.632 59.1911 66.7121C59.2745 66.7923 59.3707 66.8552 59.4807 66.8988C59.5908 66.9424 59.7051 66.9637 59.8248 66.9637C59.9434 66.9637 60.0578 66.9424 60.1678 66.8988C60.2779 66.8552 60.3741 66.7923 60.4585 66.7121C60.5419 66.632 60.606 66.5387 60.6498 66.4342C60.6947 66.3297 60.716 66.2201 60.7139 66.1076V65.2869C60.7139 64.0869 61.2514 62.9436 62.1929 62.1432L68.7274 56.5813C69.8569 55.6206 70.5024 54.2471 70.5024 52.8087V35.5881C70.5024 33.9509 69.172 32.5632 67.4419 32.415C67.4397 32.415 67.4387 32.415 67.4365 32.415C65.6039 32.2659 63.9828 33.5735 63.8065 35.3041L62.9601 43.6161C62.7325 43.5745 62.5017 43.5532 62.2719 43.5532C61.3732 43.5522 60.4756 43.8626 59.7757 44.4834L51.6852 51.6614C51.0034 52.267 50.4542 52.9771 50.0363 53.75C49.6185 52.9771 49.0692 52.267 48.3875 51.6614L40.297 44.4834C39.5971 43.8636 38.6995 43.5522 37.8008 43.5532C37.571 43.5532 37.3402 43.5745 37.1126 43.6161L36.2662 35.3041C36.0899 33.5735 34.4688 32.2659 32.6362 32.415C32.634 32.415 32.633 32.415 32.6308 32.415Z"/>
</mask>
<path d="M45.5877 28.0957C41.6702 28.0957 38.4686 31.1359 38.4686 34.8537C38.4686 37.9831 41.0963 41.075 43.6386 43.5613C46.1808 46.0466 48.7401 47.8695 48.9731 48.0339C49.2862 48.256 49.6634 48.3686 50.0363 48.3686C50.4093 48.3686 50.7833 48.257 51.0964 48.0369C51.0975 48.0359 51.0985 48.0349 51.0996 48.0339C51.324 47.8756 53.8919 46.0477 56.4341 43.5613C58.9763 41.075 61.6041 37.9831 61.6041 34.8537C61.6041 31.1349 58.4025 28.0957 54.485 28.0957C52.4514 28.0957 51.0312 28.9661 50.0363 29.7705C49.0415 28.9661 47.6213 28.0957 45.5877 28.0957ZM45.5877 29.7857C47.3659 29.7857 48.6696 30.7037 49.4069 31.4057C49.4903 31.4848 49.5865 31.5457 49.6955 31.5883C49.8045 31.6319 49.9188 31.6532 50.0363 31.6532C50.1539 31.6532 50.2682 31.6319 50.3772 31.5883C50.4862 31.5457 50.5824 31.4848 50.6658 31.4057C51.4031 30.7037 52.7068 29.7857 54.485 29.7857C57.4365 29.7857 59.8248 32.0509 59.8248 34.8537C59.8248 36.9971 57.5861 40.0109 55.1582 42.3846C52.7314 44.7583 50.2287 46.5437 50.0363 46.6796C49.8536 46.5508 47.3424 44.7594 44.9145 42.3846C42.4866 40.0109 40.2479 36.9971 40.2479 34.8537C40.2479 32.0519 42.6362 29.7857 45.5877 29.7857ZM32.6308 32.415C30.9007 32.5632 29.5703 33.9509 29.5703 35.5881V52.8087C29.5703 54.2481 30.2158 55.6206 31.3453 56.5813L37.8798 62.1412C38.8223 62.9436 39.3588 64.0869 39.3588 65.2869V66.1076C39.3566 66.2201 39.378 66.3297 39.4229 66.4342C39.4667 66.5387 39.5308 66.632 39.6142 66.7121C39.6986 66.7923 39.7948 66.8552 39.9048 66.8988C40.0149 66.9424 40.1293 66.9637 40.2479 66.9637C40.3676 66.9637 40.4819 66.9424 40.592 66.8988C40.702 66.8552 40.7982 66.7923 40.8816 66.7121C40.966 66.632 41.0301 66.5387 41.0739 66.4342C41.1188 66.3297 41.1402 66.2201 41.138 66.1076V65.2869C41.138 63.6081 40.3847 62.0063 39.066 60.8844L32.5336 55.3244C32.5336 55.3234 32.5336 55.3234 32.5336 55.3224C31.7802 54.6813 31.3495 53.7693 31.3495 52.8087V35.5881C31.3495 34.8101 31.9565 34.17 32.789 34.0979C33.661 34.028 34.41 34.6315 34.4955 35.4674L35.4007 44.3495C35.4028 44.3698 35.4049 44.3891 35.4081 44.4094C35.375 44.4368 35.3376 44.4561 35.3055 44.4855C33.8747 45.7565 33.7603 47.8979 35.0501 49.2988L40.9019 55.6561C40.9788 55.7413 41.0707 55.8093 41.1765 55.86C41.2823 55.9107 41.3945 55.9402 41.5131 55.9473C41.6317 55.9554 41.7471 55.9422 41.8593 55.9057C41.9715 55.8702 42.0731 55.8154 42.1618 55.7413C42.2515 55.6673 42.322 55.579 42.3744 55.4786C42.4268 55.3772 42.4567 55.2706 42.4642 55.158C42.4716 55.0454 42.4567 54.9359 42.4182 54.8294C42.3797 54.7229 42.321 54.6285 42.2419 54.5443L36.3902 48.187C35.7191 47.4577 35.7757 46.3804 36.5206 45.719C37.2472 45.0738 38.3543 45.0728 39.082 45.717L47.1703 52.8959C48.4302 54.0138 49.1462 55.577 49.1462 57.2153V66.1076C49.1451 66.2141 49.1644 66.3175 49.2039 66.4169C49.2434 66.5174 49.3011 66.6066 49.377 66.6858C49.4529 66.7649 49.5416 66.8288 49.642 66.8755C49.7425 66.9231 49.8493 66.9515 49.9615 66.9597C49.9915 66.9627 50.0203 66.9637 50.0502 66.9637C50.1678 66.9617 50.2811 66.9383 50.389 66.8947C50.498 66.8501 50.5931 66.7872 50.6743 66.7071C50.7566 66.6269 50.8196 66.5346 50.8634 66.4311C50.9073 66.3267 50.9276 66.2191 50.9265 66.1076V57.2153C50.9265 55.577 51.6425 54.0128 52.9024 52.8959L60.9907 45.717C61.7184 45.0718 62.8255 45.0728 63.5521 45.719C64.297 46.3804 64.3536 47.4587 63.6825 48.187L57.8308 54.5443C57.7517 54.6285 57.6929 54.7229 57.6545 54.8294C57.616 54.9359 57.601 55.0454 57.6085 55.158C57.6149 55.2706 57.6459 55.3772 57.6983 55.4786C57.7506 55.579 57.8212 55.6673 57.9109 55.7413C57.9996 55.8154 58.1011 55.8702 58.2134 55.9057C58.3256 55.9422 58.441 55.9554 58.5596 55.9473C58.6782 55.9402 58.7904 55.9107 58.8962 55.86C59.002 55.8093 59.0939 55.7413 59.1708 55.6561L65.0225 49.2988H65.0204C66.3113 47.899 66.198 45.7565 64.7671 44.4855C64.7351 44.4571 64.6977 44.4378 64.6646 44.4104C64.6678 44.3901 64.6699 44.3698 64.672 44.3495L65.5771 35.4674C65.6626 34.6315 66.4107 34.029 67.2816 34.0979H67.2837C68.1162 34.17 68.7231 34.8101 68.7231 35.5881V52.8087C68.7231 53.7693 68.2925 54.6833 67.5391 55.3244L61.0067 60.8854C59.6891 62.0063 58.9347 63.6081 58.9347 65.2869V66.1076C58.9325 66.2201 58.9539 66.3297 58.9988 66.4342C59.0426 66.5387 59.1067 66.632 59.1911 66.7121C59.2745 66.7923 59.3707 66.8552 59.4807 66.8988C59.5908 66.9424 59.7051 66.9637 59.8248 66.9637C59.9434 66.9637 60.0578 66.9424 60.1678 66.8988C60.2779 66.8552 60.3741 66.7923 60.4585 66.7121C60.5419 66.632 60.606 66.5387 60.6498 66.4342C60.6947 66.3297 60.716 66.2201 60.7139 66.1076V65.2869C60.7139 64.0869 61.2514 62.9436 62.1929 62.1432L68.7274 56.5813C69.8569 55.6206 70.5024 54.2471 70.5024 52.8087V35.5881C70.5024 33.9509 69.172 32.5632 67.4419 32.415C67.4397 32.415 67.4387 32.415 67.4365 32.415C65.6039 32.2659 63.9828 33.5735 63.8065 35.3041L62.9601 43.6161C62.7325 43.5745 62.5017 43.5532 62.2719 43.5532C61.3732 43.5522 60.4756 43.8626 59.7757 44.4834L51.6852 51.6614C51.0034 52.267 50.4542 52.9771 50.0363 53.75C49.6185 52.9771 49.0692 52.267 48.3875 51.6614L40.297 44.4834C39.5971 43.8636 38.6995 43.5522 37.8008 43.5532C37.571 43.5532 37.3402 43.5745 37.1126 43.6161L36.2662 35.3041C36.0899 33.5735 34.4688 32.2659 32.6362 32.415C32.634 32.415 32.633 32.415 32.6308 32.415Z" fill="white"/>
<path d="M45.5877 28.0957C41.6702 28.0957 38.4686 31.1359 38.4686 34.8537C38.4686 37.9831 41.0963 41.075 43.6386 43.5613C46.1808 46.0466 48.7401 47.8695 48.9731 48.0339C49.2862 48.256 49.6634 48.3686 50.0363 48.3686C50.4093 48.3686 50.7833 48.257 51.0964 48.0369C51.0975 48.0359 51.0985 48.0349 51.0996 48.0339C51.324 47.8756 53.8919 46.0477 56.4341 43.5613C58.9763 41.075 61.6041 37.9831 61.6041 34.8537C61.6041 31.1349 58.4025 28.0957 54.485 28.0957C52.4514 28.0957 51.0312 28.9661 50.0363 29.7705C49.0415 28.9661 47.6213 28.0957 45.5877 28.0957ZM45.5877 29.7857C47.3659 29.7857 48.6696 30.7037 49.4069 31.4057C49.4903 31.4848 49.5865 31.5457 49.6955 31.5883C49.8045 31.6319 49.9188 31.6532 50.0363 31.6532C50.1539 31.6532 50.2682 31.6319 50.3772 31.5883C50.4862 31.5457 50.5824 31.4848 50.6658 31.4057C51.4031 30.7037 52.7068 29.7857 54.485 29.7857C57.4365 29.7857 59.8248 32.0509 59.8248 34.8537C59.8248 36.9971 57.5861 40.0109 55.1582 42.3846C52.7314 44.7583 50.2287 46.5437 50.0363 46.6796C49.8536 46.5508 47.3424 44.7594 44.9145 42.3846C42.4866 40.0109 40.2479 36.9971 40.2479 34.8537C40.2479 32.0519 42.6362 29.7857 45.5877 29.7857ZM32.6308 32.415C30.9007 32.5632 29.5703 33.9509 29.5703 35.5881V52.8087C29.5703 54.2481 30.2158 55.6206 31.3453 56.5813L37.8798 62.1412C38.8223 62.9436 39.3588 64.0869 39.3588 65.2869V66.1076C39.3566 66.2201 39.378 66.3297 39.4229 66.4342C39.4667 66.5387 39.5308 66.632 39.6142 66.7121C39.6986 66.7923 39.7948 66.8552 39.9048 66.8988C40.0149 66.9424 40.1293 66.9637 40.2479 66.9637C40.3676 66.9637 40.4819 66.9424 40.592 66.8988C40.702 66.8552 40.7982 66.7923 40.8816 66.7121C40.966 66.632 41.0301 66.5387 41.0739 66.4342C41.1188 66.3297 41.1402 66.2201 41.138 66.1076V65.2869C41.138 63.6081 40.3847 62.0063 39.066 60.8844L32.5336 55.3244C32.5336 55.3234 32.5336 55.3234 32.5336 55.3224C31.7802 54.6813 31.3495 53.7693 31.3495 52.8087V35.5881C31.3495 34.8101 31.9565 34.17 32.789 34.0979C33.661 34.028 34.41 34.6315 34.4955 35.4674L35.4007 44.3495C35.4028 44.3698 35.4049 44.3891 35.4081 44.4094C35.375 44.4368 35.3376 44.4561 35.3055 44.4855C33.8747 45.7565 33.7603 47.8979 35.0501 49.2988L40.9019 55.6561C40.9788 55.7413 41.0707 55.8093 41.1765 55.86C41.2823 55.9107 41.3945 55.9402 41.5131 55.9473C41.6317 55.9554 41.7471 55.9422 41.8593 55.9057C41.9715 55.8702 42.0731 55.8154 42.1618 55.7413C42.2515 55.6673 42.322 55.579 42.3744 55.4786C42.4268 55.3772 42.4567 55.2706 42.4642 55.158C42.4716 55.0454 42.4567 54.9359 42.4182 54.8294C42.3797 54.7229 42.321 54.6285 42.2419 54.5443L36.3902 48.187C35.7191 47.4577 35.7757 46.3804 36.5206 45.719C37.2472 45.0738 38.3543 45.0728 39.082 45.717L47.1703 52.8959C48.4302 54.0138 49.1462 55.577 49.1462 57.2153V66.1076C49.1451 66.2141 49.1644 66.3175 49.2039 66.4169C49.2434 66.5174 49.3011 66.6066 49.377 66.6858C49.4529 66.7649 49.5416 66.8288 49.642 66.8755C49.7425 66.9231 49.8493 66.9515 49.9615 66.9597C49.9915 66.9627 50.0203 66.9637 50.0502 66.9637C50.1678 66.9617 50.2811 66.9383 50.389 66.8947C50.498 66.8501 50.5931 66.7872 50.6743 66.7071C50.7566 66.6269 50.8196 66.5346 50.8634 66.4311C50.9073 66.3267 50.9276 66.2191 50.9265 66.1076V57.2153C50.9265 55.577 51.6425 54.0128 52.9024 52.8959L60.9907 45.717C61.7184 45.0718 62.8255 45.0728 63.5521 45.719C64.297 46.3804 64.3536 47.4587 63.6825 48.187L57.8308 54.5443C57.7517 54.6285 57.6929 54.7229 57.6545 54.8294C57.616 54.9359 57.601 55.0454 57.6085 55.158C57.6149 55.2706 57.6459 55.3772 57.6983 55.4786C57.7506 55.579 57.8212 55.6673 57.9109 55.7413C57.9996 55.8154 58.1011 55.8702 58.2134 55.9057C58.3256 55.9422 58.441 55.9554 58.5596 55.9473C58.6782 55.9402 58.7904 55.9107 58.8962 55.86C59.002 55.8093 59.0939 55.7413 59.1708 55.6561L65.0225 49.2988H65.0204C66.3113 47.899 66.198 45.7565 64.7671 44.4855C64.7351 44.4571 64.6977 44.4378 64.6646 44.4104C64.6678 44.3901 64.6699 44.3698 64.672 44.3495L65.5771 35.4674C65.6626 34.6315 66.4107 34.029 67.2816 34.0979H67.2837C68.1162 34.17 68.7231 34.8101 68.7231 35.5881V52.8087C68.7231 53.7693 68.2925 54.6833 67.5391 55.3244L61.0067 60.8854C59.6891 62.0063 58.9347 63.6081 58.9347 65.2869V66.1076C58.9325 66.2201 58.9539 66.3297 58.9988 66.4342C59.0426 66.5387 59.1067 66.632 59.1911 66.7121C59.2745 66.7923 59.3707 66.8552 59.4807 66.8988C59.5908 66.9424 59.7051 66.9637 59.8248 66.9637C59.9434 66.9637 60.0578 66.9424 60.1678 66.8988C60.2779 66.8552 60.3741 66.7923 60.4585 66.7121C60.5419 66.632 60.606 66.5387 60.6498 66.4342C60.6947 66.3297 60.716 66.2201 60.7139 66.1076V65.2869C60.7139 64.0869 61.2514 62.9436 62.1929 62.1432L68.7274 56.5813C69.8569 55.6206 70.5024 54.2471 70.5024 52.8087V35.5881C70.5024 33.9509 69.172 32.5632 67.4419 32.415C67.4397 32.415 67.4387 32.415 67.4365 32.415C65.6039 32.2659 63.9828 33.5735 63.8065 35.3041L62.9601 43.6161C62.7325 43.5745 62.5017 43.5532 62.2719 43.5532C61.3732 43.5522 60.4756 43.8626 59.7757 44.4834L51.6852 51.6614C51.0034 52.267 50.4542 52.9771 50.0363 53.75C49.6185 52.9771 49.0692 52.267 48.3875 51.6614L40.297 44.4834C39.5971 43.8636 38.6995 43.5522 37.8008 43.5532C37.571 43.5532 37.3402 43.5745 37.1126 43.6161L36.2662 35.3041C36.0899 33.5735 34.4688 32.2659 32.6362 32.415C32.634 32.415 32.633 32.415 32.6308 32.415Z" stroke="white" stroke-width="0.930274" mask="url(#path-2-outside-1_7191_10505)"/>
</svg>
